<mxfile host="app.diagrams.net" modified="2025-10-22T07:12:26.031223" version="20.3.0">
  <diagram id="simple" name="Simple">
    <mxGraphModel dx="1100" dy="700" grid="1" gridSize="10" guides="1" tooltips="1" connect="1" arrows="1" page="1" pageScale="1" pageWidth="1920" pageHeight="1080">
      <root>
        <mxCell id="0"/><mxCell id="1" parent="0"/>
        <mxCell id="client" value="Client" style="rounded=1;whiteSpace=wrap;html=1;fillColor=#dae8fc;strokeColor=#6c8ebf;" vertex="1" parent="1"><mxGeometry x="40" y="180" width="140" height="60" as="geometry"/></mxCell>
        <mxCell id="api" value="API (Express)" style="rounded=1;whiteSpace=wrap;html=1;fillColor=#ffe6cc;strokeColor=#d79b00;" vertex="1" parent="1"><mxGeometry x="220" y="180" width="160" height="60" as="geometry"/></mxCell>
        <mxCell id="auth" value="Auth Service" style="rounded=1;whiteSpace=wrap;html=1;fillColor=#d5e8d4;strokeColor=#82b366;" vertex="1" parent="1"><mxGeometry x="420" y="60" width="160" height="50" as="geometry"/></mxCell>
        <mxCell id="property" value="Property Service" style="rounded=1;whiteSpace=wrap;html=1;fillColor=#d5e8d4;strokeColor=#82b366;" vertex="1" parent="1"><mxGeometry x="420" y="130" width="160" height="50" as="geometry"/></mxCell>
        <mxCell id="booking" value="Booking Service" style="rounded=1;whiteSpace=wrap;html=1;fillColor=#d5e8d4;strokeColor=#82b366;" vertex="1" parent="1"><mxGeometry x="420" y="200" width="160" height="50" as="geometry"/></mxCell>
        <mxCell id="payment" value="Payment Service" style="rounded=1;whiteSpace=wrap;html=1;fillColor=#d5e8d4;strokeColor=#82b366;" vertex="1" parent="1"><mxGeometry x="420" y="270" width="160" height="50" as="geometry"/></mxCell>
        <mxCell id="notify" value="Notification Service" style="rounded=1;whiteSpace=wrap;html=1;fillColor=#f8cecc;strokeColor=#b85450;" vertex="1" parent="1"><mxGeometry x="420" y="340" width="160" height="50" as="geometry"/></mxCell>
        <mxCell id="db" value="PostgreSQL" style="shape=database;whiteSpace=wrap;html=1;fillColor=#fff2cc;strokeColor=#d6b656;" vertex="1" parent="1"><mxGeometry x="640" y="180" width="120" height="70" as="geometry"/></mxCell>
        <mxCell id="stripe" value="Stripe" style="rounded=1;whiteSpace=wrap;html=1;fillColor=#cce5ff;strokeColor=#4d79ff;" vertex="1" parent="1"><mxGeometry x="800" y="200" width="100" height="40" as="geometry"/></mxCell>
        <mxCell id="e1" edge="1" source="client" target="api" style="endArrow=block;strokeColor=#6c8ebf;" parent="1"><mxGeometry relative="1" as="geometry"/></mxCell>
        <mxCell id="e2" edge="1" source="api" target="auth" style="endArrow=block;strokeColor=#d79b00;" parent="1"><mxGeometry relative="1" as="geometry"/></mxCell>
        <mxCell id="e3" edge="1" source="api" target="property" style="endArrow=block;strokeColor=#d79b00;" parent="1"><mxGeometry relative="1" as="geometry"/></mxCell>
        <mxCell id="e4" edge="1" source="api" target="booking" style="endArrow=block;strokeColor=#d79b00;" parent="1"><mxGeometry relative="1" as="geometry"/></mxCell>
        <mxCell id="e5" edge="1" source="api" target="payment" style="endArrow=block;strokeColor=#d79b00;" parent="1"><mxGeometry relative="1" as="geometry"/></mxCell>
        <mxCell id="e6" edge="1" source="payment" target="stripe" style="endArrow=block;strokeColor=#82b366;" parent="1"><mxGeometry relative="1" as="geometry"/></mxCell>
        <mxCell id="e7" edge="1" source="property" target="db" style="endArrow=block;strokeColor=#82b366;" parent="1"><mxGeometry relative="1"as="geometry"/></mxCell>
        <mxCell id="e8" edge="1" source="booking" target="db" style="endArrow=block;strokeColor=#82b366;" parent="1"><mxGeometry relative="1" as="geometry"/></mxCell>
        <mxCell id="e9" edge="1" source="payment" target="db" style="endArrow=block;strokeColor=#82b366;" parent="1"><mxGeometry relative="1" as="geometry"/></mxCell>
      </root>
    </mxGraphModel>
  </diagram>
</mxfile>
